<svg width="1920" height="516" viewBox="0 0 1920 516" fill="none" xmlns="http://www.w3.org/2000/svg">
<g clip-path="url(#clip0_0_554)">
<rect width="1920" height="516" fill="#151515"/>
<rect width="1920" height="516" transform="matrix(-1 0 0 1 1920 0)" fill="#1B1B1B"/>
<path opacity="0.32" d="M1595.13 329.782C1606.65 322.998 1616.52 314.091 1618.64 302.041L1618.64 302.04C1618.69 301.774 1618.7 301.578 1618.7 301.439C1618.67 301.456 1618.63 301.473 1618.59 301.498C1618.28 301.693 1617.86 302.056 1617.32 302.574C1616.79 303.085 1616.17 303.725 1615.49 304.451C1612.75 307.34 1608.9 311.59 1605.08 314.267L1605.08 314.268C1597.4 319.641 1592.2 320.307 1588.67 318.601C1585.18 316.912 1583.6 313.007 1582.86 309.853L1582.85 309.817L1582.85 309.781C1582.75 308.556 1582.56 307.323 1582.3 306.137L1582.29 306.108L1582.29 306.078C1582.26 305.771 1582.24 305.502 1582.23 305.283L1582.1 305.282C1578.7 291.685 1566.04 281.44 1549.48 278.269L1548.68 278.123C1527.02 274.296 1507.28 283.91 1503.27 303.517L1503.09 304.458C1502.56 307.444 1502.35 309.451 1502.27 310.704C1502.23 311.33 1502.23 311.768 1502.23 312.045C1502.24 312.184 1502.24 312.282 1502.24 312.343C1502.24 312.374 1502.25 312.396 1502.25 312.409L1502.25 312.435L1502.26 312.733C1502.27 313.033 1502.25 313.333 1502.25 313.555C1502.25 313.634 1502.26 313.721 1502.25 313.82L1502.25 313.819C1502.13 319.377 1497.87 324 1492.15 324.363L1434.16 328.047L1433.86 328.067L1433.7 327.8C1409.44 285.924 1387.58 243.128 1361.36 202.054C1361.34 202.047 1361.32 202.039 1361.3 202.031C1361.15 201.98 1360.95 201.908 1360.71 201.825C1360.22 201.658 1359.57 201.444 1358.91 201.258C1358.24 201.07 1357.59 200.916 1357.11 200.858C1357.02 200.848 1356.95 200.842 1356.89 200.838L1409.29 306.538L1420.04 328.234L1420.37 328.907L1419.63 328.955L1396.17 330.452L1278.37 337.91C1278.41 337.964 1278.45 338.024 1278.5 338.089C1278.79 338.482 1279.25 338.966 1279.74 339.446C1280.24 339.922 1280.75 340.379 1281.14 340.719C1281.33 340.888 1281.5 341.028 1281.61 341.125C1281.63 341.14 1281.65 341.155 1281.66 341.168C1330.14 343.23 1378.04 340.967 1426.1 341.062L1426.41 341.062L1426.55 341.339L1441.78 372.082C1441.79 372.095 1441.8 372.107 1441.81 372.122C1441.82 372.152 1441.83 372.183 1441.84 372.212L1449.46 387.566L1451.99 392.669C1454.75 398.221 1452.36 404.861 1446.71 407.39L1446.71 407.392C1446.71 407.392 1446.71 407.394 1446.7 407.397C1446.69 407.402 1446.67 407.411 1446.64 407.424C1446.59 407.451 1446.51 407.495 1446.39 407.561C1446.15 407.693 1445.79 407.912 1445.27 408.253C1444.37 408.851 1443.03 409.822 1441.15 411.357L1440.32 412.049C1424.58 425.269 1425.94 447.593 1440.31 464.711C1454.67 481.835 1476.43 487.056 1492.18 473.842C1507.51 460.978 1509.13 437.369 1496.09 420.378L1495.46 419.575C1475.18 394.729 1457.98 368.603 1442.03 341.95L1441.57 341.18L1442.47 341.193C1474.13 341.681 1505.87 343.507 1537.84 348.612C1546.61 349.838 1554.94 347.773 1562.42 344.605L1562.42 344.605C1570.63 341.135 1583.62 336.562 1595.13 329.782ZM1432.88 335.99C1431.98 337.554 1429.99 338.08 1428.43 337.178C1426.86 336.276 1426.33 334.292 1427.24 332.73C1428.14 331.161 1430.12 330.636 1431.68 331.537C1433.24 332.439 1433.79 334.42 1432.88 335.99ZM1490.2 422.855C1502.3 437.277 1501.47 457.988 1488.21 469.113C1481.57 474.68 1473.78 476.195 1466.14 474.502C1458.52 472.812 1451.07 467.934 1445.04 460.749L1445.04 460.749C1439.01 453.56 1435.5 445.373 1435.16 437.572C1434.82 429.757 1437.66 422.35 1444.29 416.786C1453.59 408.988 1462.06 406.854 1469.75 408.549C1477.41 410.237 1484.2 415.7 1490.2 422.855ZM1576.44 317.396C1573.44 334.446 1555.91 345.533 1537.37 342.262C1528.18 340.638 1520.05 337.493 1514.76 331.7C1509.61 326.065 1507.21 318.005 1508.98 306.641L1509.16 305.531C1510.67 297.006 1515.67 290.843 1522.6 287.232C1529.53 283.628 1538.37 282.575 1547.61 284.198L1547.61 284.198C1556.85 285.834 1564.8 289.849 1570.08 295.604C1575.36 301.369 1577.95 308.868 1576.44 317.396L1576.44 317.396Z" stroke="#CEA561"/>
<path opacity="0.3" d="M451.052 503.676C458.434 497.069 459.059 485.715 452.436 478.343L452.433 478.34C452.158 478.03 451.713 477.593 451.325 477.224C451.133 477.043 450.959 476.881 450.832 476.764C450.769 476.706 450.718 476.659 450.683 476.627C450.665 476.611 450.652 476.599 450.643 476.591C416.115 449.185 385.27 419.992 354.553 384.398L354.197 383.986L354.638 383.667C357.199 381.815 359.532 380.097 361.559 378.675L361.561 378.674C364.071 376.928 369.526 373.316 374.348 370.146C376.76 368.56 379.016 367.083 380.669 366.002C381.495 365.462 382.17 365.021 382.639 364.715C382.873 364.562 383.056 364.443 383.18 364.362C383.242 364.321 383.291 364.29 383.323 364.269C383.338 364.259 383.35 364.251 383.359 364.246C383.363 364.243 383.366 364.241 383.368 364.24C383.369 364.239 383.369 364.238 383.37 364.238L383.644 364.656L383.37 364.237L383.598 364.09L383.846 364.199L393.718 368.557L465.561 323.881C464.995 318.816 463.891 314.608 462.083 311.499C460.281 308.403 457.787 306.403 454.403 305.715L382.37 350.51C382.326 350.597 382.262 350.719 382.174 350.872C381.994 351.185 381.715 351.624 381.312 352.146C380.506 353.19 379.203 354.566 377.203 355.929L377.202 355.929C375.99 356.749 371.322 359.726 365.515 363.464C359.701 367.205 352.734 371.716 346.906 375.612L346.652 375.782L346.385 375.633C343.482 374.019 339.777 374.294 337.178 376.622C334.595 378.931 333.895 382.517 335.13 385.556L335.175 385.665L335.166 385.784L335.129 386.09C334.894 387.618 333.832 389.13 332.038 390.514C330.238 391.903 327.651 393.203 324.251 394.302L323.559 394.518C319.858 395.65 315.103 395.999 311.822 396.314C310.995 396.393 310.265 396.47 309.661 396.556C309.089 396.637 308.661 396.725 308.382 396.818C308.458 396.867 308.553 396.924 308.671 396.987C318.259 402.079 329.249 398.93 339.371 393.507L339.78 393.288L340.028 393.681C363.75 431.126 391.976 464.647 425.729 502.283L425.742 502.297L425.886 502.461C426.051 502.643 426.27 502.867 426.473 503.07C426.605 503.202 426.726 503.322 426.815 503.408C426.859 503.452 426.896 503.486 426.921 503.51C426.933 503.522 426.943 503.531 426.949 503.538C426.952 503.541 426.955 503.543 426.957 503.544L426.958 503.546L426.959 503.547C433.681 509.72 444.121 509.894 451.052 503.677L451.052 503.676ZM347.312 386.743C346.1 388.843 343.398 389.577 341.292 388.361C339.176 387.14 338.46 384.433 339.672 382.333C340.893 380.219 343.595 379.485 345.711 380.707C347.819 381.924 348.531 384.631 347.312 386.743Z" stroke="#CEA561"/>
<path opacity="0.4" d="M941.62 549.549C948.957 551.515 953.575 551.552 956.333 551.12C957.71 550.905 958.625 550.573 959.183 550.305C959.462 550.171 959.654 550.052 959.771 549.972C959.8 549.952 959.825 549.933 959.845 549.918C959.852 549.901 959.86 549.882 959.869 549.861C959.918 549.747 959.991 549.578 960.085 549.357C960.274 548.914 960.552 548.261 960.908 547.424C961.621 545.748 962.645 543.331 963.891 540.366C966.384 534.436 969.766 526.313 973.321 517.541C980.436 499.984 988.23 479.868 991.004 469.516L1000.41 434.429L1000.75 434.396L1004.6 434.037L1013.18 402.043L1007.39 400.493L1005.88 406.148L1002.66 405.286L1004.18 399.631L1002.9 399.289L1001.38 404.944L998.165 404.082L999.681 398.427L998.396 398.082L996.881 403.737L993.664 402.875L995.179 397.22L993.893 396.876L992.378 402.531L989.165 401.67L990.681 396.015L989.395 395.671L987.88 401.326L984.663 400.464L986.178 394.809L984.899 394.466L983.384 400.121L980.168 399.259L981.684 393.604L980.398 393.26L978.883 398.915L975.666 398.053L977.181 392.398L975.898 392.054L974.383 397.709L971.167 396.848L972.683 391.193L971.402 390.849L969.886 396.504L966.665 395.641L968.18 389.986L966.903 389.644L965.388 395.299L962.169 394.437L963.685 388.782L962.401 388.438L960.886 394.093L957.672 393.231L959.187 387.576L953.4 386.026L944.827 418.02L947.983 420.257L948.266 420.458L944.811 433.353L935.086 430.747L927.506 459.036L933.851 460.736L938.934 441.764L942.315 442.67L938.865 455.546C936.091 465.897 932.785 487.216 930.171 505.979C928.865 515.353 927.732 524.079 926.926 530.461C926.523 533.653 926.202 536.258 925.981 538.065C925.871 538.968 925.786 539.673 925.729 540.151C925.7 540.39 925.678 540.573 925.664 540.695C925.661 540.718 925.657 540.739 925.655 540.758C925.665 540.781 925.677 540.809 925.693 540.841C925.753 540.969 925.86 541.167 926.034 541.423C926.383 541.933 927.007 542.678 928.092 543.553C930.263 545.305 934.28 547.582 941.62 549.549ZM925.623 540.677L925.623 540.677L925.623 540.675L925.622 540.673C925.622 540.673 925.622 540.675 925.622 540.676L925.622 540.678L925.623 540.677ZM959.916 549.862L959.915 549.863L959.914 549.865L959.913 549.866L959.916 549.862ZM1007.79 410.733L1007.34 410.657C989.123 407.565 971.384 402.842 954.145 396.403L953.719 396.244L954.248 394.271L1008.32 408.76L1007.79 410.733Z" stroke="#CEA561"/>
<path opacity="0.2" d="M496.628 112.582C496.602 112.597 496.579 112.613 496.557 112.626C496.776 112.674 497.067 112.719 497.433 112.758C497.937 112.811 498.547 112.852 499.239 112.893C501.981 113.056 505.969 113.203 509.103 114.039L509.104 114.038C515.385 115.719 518.124 118.201 518.804 120.907C519.475 123.575 518.068 126.201 516.719 127.996L516.698 128.023L516.674 128.048C516.065 128.663 515.505 129.291 515.001 129.952L514.98 129.979L514.957 130.002C514.952 130.007 514.946 130.012 514.941 130.017L514.638 130.435C508.886 138.345 509.151 149.768 515.074 160.027C522.764 173.347 536.868 179.425 549.098 172.373C550.913 171.321 552.066 170.543 552.76 170.031C553.107 169.775 553.339 169.586 553.482 169.464C553.553 169.403 553.602 169.359 553.632 169.331C553.647 169.318 553.657 169.308 553.663 169.302C553.665 169.3 553.666 169.299 553.667 169.298L553.667 169.299C553.869 169.089 554.121 168.91 554.277 168.788C554.307 168.757 554.358 168.71 554.418 168.667C557.481 166.213 561.916 166.412 564.696 169.325L596.871 203.035L596.944 203.111L596.979 203.21C608.005 233.684 617.531 264.43 630.034 294.575C630.124 294.626 630.25 294.698 630.402 294.782C630.714 294.954 631.13 295.175 631.552 295.379C631.925 295.559 632.288 295.715 632.582 295.815L609.736 217.877L610.577 217.391L666.675 276.175C666.735 275.871 666.781 275.48 666.812 275.068C666.847 274.6 666.863 274.128 666.871 273.772C666.874 273.599 666.876 273.454 666.877 273.351C646.921 247.451 625.037 223.649 604.194 198.844L604.127 198.763L604.097 198.663L595.507 169.356L595.468 169.221L595.471 169.209L592.159 157.929L592.159 157.928L591.053 154.146L591.052 154.147C589.816 149.95 592.291 145.626 596.548 144.551L596.552 144.549C596.559 144.547 596.571 144.544 596.589 144.539C596.626 144.528 596.687 144.508 596.773 144.478C596.945 144.417 597.217 144.313 597.604 144.144C598.379 143.804 599.612 143.201 601.419 142.158C613.651 135.104 615.429 119.847 607.738 106.527C600.046 93.2043 585.944 87.1213 573.719 94.1795C561.595 101.179 557.715 117.358 564.968 130.525C573.106 145.082 579.949 159.918 586.109 174.912L585.251 175.407C575.204 162.41 565.651 148.928 557.029 134.561L557.03 134.56C553.811 129.409 549.046 125.953 544.053 123.406C538.547 120.598 530.368 115.766 521.671 112.696C512.966 109.623 503.909 108.378 496.628 112.582ZM599.322 198.998C600.476 198.332 601.956 198.725 602.622 199.879C603.289 201.033 602.889 202.511 601.735 203.178L601.732 203.18C600.586 203.829 599.114 203.444 598.441 202.298L598.439 202.294C597.772 201.14 598.179 199.658 599.322 198.998ZM575.688 97.6082C580.928 94.583 586.47 94.4761 591.512 96.5551C596.542 98.629 601.055 102.867 604.311 108.506C607.563 114.14 608.979 120.166 608.263 125.559C607.546 130.967 604.686 135.715 599.446 138.741C592.139 142.96 586.057 143.417 580.961 141.323C575.895 139.24 571.908 134.678 568.676 129.08L568.675 129.079C562.145 117.75 565.226 103.649 575.688 97.6082ZM523.371 127.814C533.84 121.769 547.598 126.149 554.129 137.478L554.72 138.529C557.596 143.791 559.276 149.148 558.595 154.236C557.863 159.695 554.429 164.732 547.121 168.951C541.885 171.974 536.344 172.075 531.304 169.992C526.276 167.915 521.764 163.676 518.512 158.042C515.258 152.406 513.843 146.38 514.558 140.988C515.276 135.583 518.134 130.837 523.371 127.814Z" stroke="#CEA561"/>
</g>
<defs>
<clipPath id="clip0_0_554">
<rect width="1920" height="516" fill="white"/>
</clipPath>
</defs>
</svg>
