<svg width="110" height="90" viewBox="0 0 110 90" fill="none" xmlns="http://www.w3.org/2000/svg">
<path d="M93.6615 58.2978C94.772 60.552 93.8408 63.2813 91.5841 64.3913L65.6175 77.1682C63.3637 78.2763 60.6358 77.3474 59.5244 75.0927L35.0507 25.354C33.9401 23.0987 34.871 20.3699 37.1273 19.2614L63.0939 6.48353C65.3482 5.37398 68.0799 6.30285 69.1889 8.55711L93.6615 58.2978Z" fill="#151515" fill-opacity="0.7"/>
<path d="M93.6616 58.2975L92.8806 58.682C93.1383 59.2061 93.2588 59.7563 93.2588 60.3012C93.2578 61.6608 92.5029 62.9693 91.1997 63.6101L65.233 76.387C64.7093 76.6443 64.1587 76.7642 63.6138 76.7647C62.2537 76.7637 60.9461 76.0097 60.3054 74.708L35.8317 24.9692C35.5734 24.4441 35.4521 23.8929 35.452 23.3485C35.4531 21.9885 36.2072 20.6814 37.511 20.0421L63.4779 7.26472C64.003 7.00648 64.5542 6.88554 65.0996 6.88506C66.4601 6.88602 67.7682 7.64001 68.4075 8.94131L92.8801 58.6815L93.6616 58.2975L94.4425 57.913L69.9699 8.17239C69.0261 6.25633 67.0999 5.14294 65.0996 5.14391C64.295 5.14391 63.4765 5.32457 62.709 5.70229L36.743 18.4796C34.8254 19.422 33.7098 21.3477 33.7109 23.3485C33.7107 24.1526 33.8916 24.9712 34.2693 25.7382L58.7434 75.4769C59.6882 77.3925 61.6134 78.5068 63.6138 78.5059C64.4169 78.5059 65.2345 78.3262 66.0015 77.9494L91.9686 65.1721C93.8851 64.2278 95.0014 62.3021 95 60.3012C95.0004 59.4981 94.8203 58.6796 94.4425 57.913L93.6616 58.2975Z" fill="#CEA561"/>
<path d="M88.6538 56.8513C89.6246 58.8213 88.953 61.1353 87.153 62.0204L66.4431 72.211C64.6408 73.097 62.3986 72.2154 61.4307 70.2473L40.0524 26.803C39.0858 24.834 39.752 22.521 41.5549 21.634L62.2675 11.4433C64.067 10.5583 66.3121 11.439 67.2776 13.4076L88.6538 56.8513Z" fill="#151515" fill-opacity="0.7"/>
<path d="M88.6539 56.851L87.8729 57.236C88.1153 57.7279 88.228 58.2405 88.228 58.7334C88.228 59.2797 88.0883 59.799 87.8373 60.2317C87.5858 60.6648 87.2283 61.0117 86.7687 61.2391L66.0588 71.4297C65.7052 71.6032 65.3337 71.6841 64.955 71.6846C63.9009 71.688 62.7827 71.0275 62.2123 69.863L40.8335 26.4183C40.592 25.9269 40.4793 25.4133 40.4793 24.9209C40.4793 24.3746 40.6184 23.8552 40.8693 23.4226C41.1208 22.9894 41.4777 22.6421 41.9391 22.4152L62.6516 12.224C63.0048 12.0506 63.3753 11.9696 63.754 11.9692C64.8076 11.9658 65.9268 12.6263 66.4963 13.7908L66.4967 13.7917L87.8729 57.2355L88.6539 56.851L89.4349 56.467L68.0587 13.0233L68.0592 13.0243C67.2069 11.2898 65.5187 10.2309 63.754 10.228C63.1214 10.2275 62.4801 10.3677 61.8832 10.6621L41.1708 20.8523C40.3888 21.2362 39.7726 21.8394 39.3622 22.5501C38.9506 23.2617 38.7383 24.0807 38.7383 24.9209C38.7383 25.6788 38.9116 26.4554 39.2709 27.1867L60.6498 70.6314C61.5026 72.363 63.1893 73.4224 64.955 73.4258C65.5871 73.4263 66.2289 73.2861 66.8268 72.9922L87.5371 62.801C88.3181 62.4175 88.9334 61.8148 89.3443 61.1042C89.7558 60.3931 89.9687 59.5741 89.9687 58.7334C89.9687 57.9755 89.7953 57.1984 89.4349 56.4666L88.6539 56.851Z" fill="#CEA561"/>
<path d="M44.0355 24.8389C44.3489 25.4748 44.0854 26.2457 43.4481 26.5579C42.8139 26.8715 42.0438 26.6094 41.7299 25.973C41.4177 25.3356 41.6765 24.5681 42.3143 24.255C42.9504 23.9413 43.7229 24.2025 44.0355 24.8389Z" fill="#CEA561"/>
<path d="M49.2701 22.2614C49.5813 22.8973 49.3197 23.6682 48.6808 23.9813C48.0444 24.2945 47.2797 24.0309 46.9644 23.395C46.6518 22.7586 46.9112 21.9911 47.5491 21.677C48.1846 21.3638 48.9555 21.6249 49.2701 22.2614Z" fill="#CEA561"/>
<path d="M54.4992 19.6862C54.8119 20.3221 54.5493 21.093 53.9124 21.4057C53.275 21.7179 52.5085 21.4548 52.1954 20.8189C51.8807 20.1824 52.1443 19.4145 52.7812 19.1013C53.4128 18.7881 54.187 19.0493 54.4992 19.6862Z" fill="#CEA561"/>
<path d="M59.7399 17.1092C60.0526 17.7452 59.791 18.5155 59.156 18.8292C58.519 19.1419 57.7501 18.8788 57.4374 18.2433C57.1233 17.6064 57.3859 16.838 58.0219 16.5243C58.6578 16.2121 59.4277 16.4733 59.7399 17.1092Z" fill="#CEA561"/>
<path d="M64.9718 14.5346C65.2854 15.1705 65.0238 15.9399 64.3883 16.2536C63.7524 16.5667 62.982 16.3042 62.6674 15.6687C62.3533 15.0328 62.6187 14.2638 63.2518 13.9497C63.8911 13.6361 64.6572 13.8977 64.9718 14.5346Z" fill="#CEA561"/>
<path d="M48.6118 26.746C48.9268 27.3829 48.6633 28.1518 48.0245 28.4669C47.3895 28.7796 46.6202 28.5165 46.3072 27.8806C45.9959 27.2436 46.256 26.4742 46.8931 26.1606C47.5302 25.8474 48.3015 26.109 48.6118 26.746Z" fill="#CEA561"/>
<path d="M53.8516 24.1706C54.1648 24.8075 53.9022 25.5764 53.2658 25.891C52.6279 26.2032 51.8618 25.9402 51.5458 25.3037C51.2336 24.6673 51.4952 23.8979 52.1307 23.5847C52.769 23.2716 53.5389 23.5332 53.8516 24.1706Z" fill="#CEA561"/>
<path d="M59.0803 21.5951C59.3953 22.2315 59.1308 23.0028 58.4963 23.3141C57.8599 23.6277 57.09 23.3647 56.7768 22.7278C56.4642 22.0913 56.7248 21.3229 57.3593 21.0083C57.9943 20.6966 58.7685 20.9577 59.0803 21.5951Z" fill="#CEA561"/>
<path d="M64.3153 19.0195C64.629 19.6555 64.3683 20.4254 63.7338 20.7376C63.0945 21.0517 62.3275 20.7882 62.0168 20.1517C61.7021 19.5143 61.9604 18.7463 62.5963 18.4327C63.2347 18.1196 64.0012 18.3821 64.3153 19.0195Z" fill="#CEA561"/>
<path d="M47.3809 31.6455C47.6915 32.2824 47.428 33.0504 46.7909 33.3636C46.1572 33.6767 45.3879 33.4161 45.0751 32.7801C44.7603 32.1422 45.0203 31.3724 45.6576 31.0602C46.2946 30.7465 47.0672 31.0086 47.3809 31.6455Z" fill="#CEA561"/>
<path d="M52.6155 29.0706C52.9296 29.7056 52.6637 30.4736 52.0292 30.7872C51.3918 31.1008 50.6262 30.8397 50.3126 30.2028C49.9994 29.5654 50.2582 28.796 50.8941 28.4838C51.5306 28.1702 52.3019 28.4322 52.6155 29.0706Z" fill="#CEA561"/>
<path d="M57.8503 26.4938C58.1615 27.1298 57.8994 27.8977 57.2635 28.2099C56.6275 28.5236 55.8596 28.2629 55.5474 27.627C55.2328 26.9886 55.4939 26.2192 56.1322 25.907C56.7658 25.5943 57.5371 25.8559 57.8503 26.4938Z" fill="#CEA561"/>
<path d="M63.0835 23.9181C63.3962 24.5531 63.1355 25.3221 62.4986 25.6347C61.8641 25.9484 61.0913 25.6877 60.7811 25.0518C60.4669 24.4139 60.7305 23.644 61.3645 23.3313C62.0014 23.0177 62.7708 23.2807 63.0835 23.9181Z" fill="#CEA561"/>
<path d="M68.3238 21.3412C68.6365 21.9766 68.3735 22.7451 67.7394 23.0592C67.1011 23.3714 66.3288 23.1122 66.018 22.4762C65.7058 21.8389 65.9699 21.0675 66.6029 20.7548C67.2389 20.4407 68.0092 20.7038 68.3238 21.3412Z" fill="#CEA561"/>
<path d="M51.9645 33.5522C52.2777 34.1877 52.0151 34.9566 51.3767 35.2712C50.7408 35.5844 49.9714 35.3213 49.6587 34.6868C49.348 34.0509 49.6067 33.2815 50.2436 32.9688C50.88 32.6537 51.6499 32.9168 51.9645 33.5522Z" fill="#CEA561"/>
<path d="M57.1992 30.9768C57.5133 31.6118 57.2498 32.3802 56.6109 32.6953C55.9735 33.0075 55.2075 32.7464 54.8924 32.1109C54.5821 31.4754 54.8428 30.7046 55.4792 30.3924C56.1161 30.0773 56.8889 30.3408 57.1992 30.9768Z" fill="#CEA561"/>
<path d="M62.4318 28.4016C62.7454 29.0361 62.4809 29.806 61.8449 30.1196C61.2071 30.4328 60.441 30.1712 60.1303 29.5357C59.8142 28.8993 60.0758 28.1298 60.7113 27.8167C61.3473 27.503 62.1205 27.7656 62.4318 28.4016Z" fill="#CEA561"/>
<path d="M67.6681 25.8261C67.9784 26.4611 67.7192 27.23 67.0803 27.5436C66.4453 27.8553 65.6793 27.5923 65.3676 26.9583C65.0535 26.3223 65.3141 25.5534 65.9472 25.2412C66.586 24.9271 67.3549 25.1901 67.6681 25.8261Z" fill="#CEA561"/>
<path d="M50.7292 38.4495C51.0438 39.0869 50.7794 39.8578 50.141 40.1704C49.5074 40.4836 48.7414 40.222 48.4244 39.5841C48.1137 38.9491 48.3719 38.1812 49.0098 37.8675C49.6476 37.5553 50.4185 37.8155 50.7292 38.4495Z" fill="#CEA561"/>
<path d="M55.9651 35.8737C56.2806 36.5116 56.0176 37.2819 55.3807 37.5951C54.7437 37.9078 53.9796 37.6447 53.6631 37.0073C53.3519 36.3738 53.6096 35.6049 54.2465 35.2917C54.882 34.9781 55.6543 35.2387 55.9651 35.8737Z" fill="#CEA561"/>
<path d="M61.1968 33.298C61.5095 33.9359 61.245 34.7058 60.6095 35.018C59.9764 35.3316 59.2075 35.069 58.8958 34.4312C58.5807 33.7976 58.8394 33.0287 59.4783 32.7151C60.1137 32.4029 60.8836 32.6645 61.1968 33.298Z" fill="#CEA561"/>
<path d="M66.4357 30.7211C66.7484 31.3589 66.4863 32.1284 65.848 32.442C65.212 32.7556 64.4426 32.4921 64.1323 31.8547C63.8192 31.2212 64.0808 30.4522 64.7172 30.1381C65.3512 29.8264 66.1221 30.088 66.4357 30.7211Z" fill="#CEA561"/>
<path d="M71.6729 28.1459C71.9895 28.7838 71.724 29.5527 71.0885 29.8673C70.4497 30.1795 69.6817 29.9179 69.371 29.2805C69.0564 28.6465 69.3209 27.8771 69.9559 27.563C70.5899 27.2503 71.3598 27.5119 71.6729 28.1459Z" fill="#CEA561"/>
<path d="M55.3088 40.3593C55.6201 40.9958 55.3609 41.7647 54.7225 42.0788C54.0866 42.392 53.3176 42.1294 53.0045 41.493C52.6889 40.8575 52.9534 40.0886 53.586 39.7744C54.2272 39.4613 54.9957 39.7234 55.3088 40.3593Z" fill="#CEA561"/>
<path d="M60.5465 37.7834C60.8635 38.4193 60.6009 39.1897 59.9611 39.5033C59.3247 39.8155 58.5567 39.5525 58.2416 38.9165C57.928 38.2815 58.1915 37.5121 58.8284 37.1985C59.4653 36.8848 60.2338 37.1469 60.5465 37.7834Z" fill="#CEA561"/>
<path d="M65.7815 35.2071C66.0951 35.8426 65.8316 36.6149 65.1928 36.9261C64.5597 37.2402 63.7884 36.9762 63.4757 36.3403C63.163 35.7053 63.4251 34.9364 64.0611 34.6218C64.697 34.31 65.4683 34.5707 65.7815 35.2071Z" fill="#CEA561"/>
<path d="M71.0178 32.6312C71.3271 33.2677 71.0679 34.0375 70.432 34.3493C69.7941 34.6629 69.0271 34.3989 68.7144 33.7639C68.4013 33.1284 68.6629 32.3595 69.2969 32.0473C69.9348 31.7327 70.7013 31.9958 71.0178 32.6312Z" fill="#CEA561"/>
<path d="M54.0759 45.2577C54.3881 45.8922 54.1236 46.664 53.4867 46.9771C52.8522 47.2903 52.0837 47.0282 51.7681 46.3918C51.4569 45.7558 51.7166 44.9864 52.3554 44.6742C52.9919 44.3601 53.7651 44.6217 54.0759 45.2577Z" fill="#CEA561"/>
<path d="M59.3139 42.6818C59.6261 43.3172 59.3649 44.0881 58.7271 44.4017C58.0916 44.7144 57.3241 44.4499 57.0105 43.8149C56.6997 43.179 56.9575 42.411 57.5939 42.0978C58.2279 41.7842 59.0002 42.0463 59.3139 42.6818Z" fill="#CEA561"/>
<path d="M64.5481 40.1057C64.8598 40.7412 64.5978 41.5116 63.9628 41.8242C63.3278 42.1369 62.5593 41.8748 62.2467 41.2389C61.933 40.6034 62.1917 39.8345 62.8291 39.5208C63.4641 39.2082 64.2359 39.4703 64.5481 40.1057Z" fill="#CEA561"/>
<path d="M69.7809 37.5293C70.0951 38.1648 69.833 38.9352 69.1965 39.2488C68.5606 39.562 67.7921 39.2989 67.4795 38.663C67.1678 38.027 67.4274 37.2586 68.0629 36.9445C68.6989 36.6313 69.4697 36.8934 69.7809 37.5293Z" fill="#CEA561"/>
<path d="M75.0188 34.9539C75.3354 35.5889 75.0689 36.3588 74.433 36.6729C73.7965 36.9851 73.0252 36.724 72.7145 36.0875C72.3999 35.4525 72.6658 34.6817 73.3003 34.369C73.9372 34.0544 74.7057 34.3174 75.0188 34.9539Z" fill="#CEA561"/>
<path d="M58.6565 47.1658C58.9692 47.8008 58.709 48.5722 58.0721 48.8863C57.4347 49.1999 56.6668 48.9364 56.3507 48.3004C56.038 47.664 56.3001 46.8951 56.9351 46.5814C57.5773 46.2664 58.3458 46.5289 58.6565 47.1658Z" fill="#CEA561"/>
<path d="M63.8932 44.5899C64.2078 45.2249 63.9486 45.9957 63.3088 46.3094C62.6728 46.6225 61.902 46.3595 61.5893 45.723C61.2771 45.0866 61.5358 44.3177 62.1737 44.004C62.8135 43.6894 63.5824 43.953 63.8932 44.5899Z" fill="#CEA561"/>
<path d="M69.1338 42.0149C69.4441 42.649 69.182 43.4212 68.5451 43.7334C67.9111 44.048 67.1383 43.784 66.828 43.1476C66.5153 42.5116 66.7731 41.7427 67.4134 41.4286C68.0484 41.1159 68.8178 41.3775 69.1338 42.0149Z" fill="#CEA561"/>
<path d="M74.3649 39.4394C74.6738 40.0734 74.4165 40.8443 73.7796 41.1579C73.1427 41.4721 72.3766 41.2061 72.064 40.5711C71.7469 39.9342 72.0114 39.1658 72.6455 38.8531C73.2809 38.5394 74.0499 38.8025 74.3649 39.4394Z" fill="#CEA561"/>
<path d="M57.4305 52.0632C57.7451 52.6992 57.4772 53.4705 56.8422 53.7832C56.2053 54.0959 55.4393 53.8333 55.1247 53.1978C54.8115 52.5614 55.0721 51.791 55.711 51.4783C56.344 51.1662 57.1159 51.4282 57.4305 52.0632Z" fill="#CEA561"/>
<path d="M62.6593 49.4879C62.97 50.1244 62.7074 50.8952 62.0691 51.2074C61.4365 51.5196 60.6671 51.2566 60.3549 50.6211C60.0427 49.9851 60.3019 49.2157 60.9364 48.9031C61.5743 48.5904 62.3456 48.8515 62.6593 49.4879Z" fill="#CEA561"/>
<path d="M67.8997 46.9116C68.2133 47.548 67.9522 48.3189 67.3138 48.6306C66.6803 48.9437 65.9142 48.6812 65.5972 48.0442C65.2836 47.4088 65.5466 46.6394 66.1816 46.3272C66.8157 46.0145 67.587 46.2756 67.8997 46.9116Z" fill="#CEA561"/>
<path d="M73.1299 44.3335C73.4445 44.9709 73.1819 45.7407 72.5474 46.0534C71.91 46.3666 71.143 46.104 70.826 45.4671C70.5157 44.8316 70.7764 44.0622 71.4133 43.7495C72.0473 43.4364 72.8191 43.6985 73.1299 44.3335Z" fill="#CEA561"/>
<path d="M78.3668 41.7594C78.6828 42.3963 78.4183 43.1657 77.7824 43.4783C77.146 43.7905 76.3737 43.5304 76.0615 42.894C75.7483 42.2585 76.0128 41.4867 76.6483 41.1745C77.2866 40.8613 78.0541 41.1234 78.3668 41.7594Z" fill="#CEA561"/>
<path d="M62.0075 53.9715C62.3221 54.6094 62.06 55.3769 61.4217 55.6915C60.7838 56.0056 60.0163 55.743 59.7017 55.1056C59.391 54.4711 59.6492 53.7012 60.2881 53.3891C60.9254 53.074 61.6977 53.337 62.0075 53.9715Z" fill="#CEA561"/>
<path d="M67.2437 51.3954C67.5573 52.0328 67.2972 52.8012 66.6569 53.1158C66.0224 53.429 65.2539 53.1664 64.9413 52.529C64.6286 51.894 64.8863 51.1246 65.5228 50.8129C66.1607 50.4973 66.932 50.7613 67.2437 51.3954Z" fill="#CEA561"/>
<path d="M72.4787 48.8183C72.7923 49.4557 72.5283 50.2256 71.8924 50.5388C71.254 50.8519 70.488 50.5894 70.1743 49.9524C69.8636 49.3179 70.1223 48.548 70.7587 48.2359C71.3947 47.9222 72.1665 48.1848 72.4787 48.8183Z" fill="#CEA561"/>
<path d="M77.7122 46.2448C78.0249 46.8817 77.7671 47.6511 77.1297 47.9643C76.4928 48.2765 75.7268 48.0134 75.4141 47.377C75.1005 46.7425 75.3616 45.9726 75.9932 45.6604C76.632 45.3472 77.4019 45.6098 77.7122 46.2448Z" fill="#CEA561"/>
<path d="M60.7774 58.8696C61.0945 59.507 60.8304 60.2783 60.194 60.591C59.5581 60.9051 58.7901 60.6421 58.4765 60.0042C58.1633 59.3697 58.423 58.5989 59.0599 58.2857C59.6968 57.973 60.4672 58.2361 60.7774 58.8696Z" fill="#CEA561"/>
<path d="M66.0148 56.2933C66.3256 56.9307 66.062 57.7011 65.4251 58.0142C64.7921 58.3284 64.0227 58.0634 63.7105 57.426C63.3983 56.7929 63.657 56.0226 64.2915 55.7094C64.9308 55.3962 65.6997 55.6598 66.0148 56.2933Z" fill="#CEA561"/>
<path d="M71.248 53.7171C71.5588 54.3544 71.2986 55.1248 70.6636 55.437C70.0243 55.7507 69.2583 55.4876 68.9446 54.8502C68.632 54.2162 68.8931 53.4458 69.529 53.1322C70.1631 52.8205 70.9354 53.0835 71.248 53.7171Z" fill="#CEA561"/>
<path d="M76.487 51.141C76.7992 51.7784 76.5404 52.5488 75.9026 52.8619C75.2681 53.1756 74.4958 52.912 74.1831 52.2746C73.8704 51.6411 74.1306 50.8702 74.7675 50.5566C75.403 50.2425 76.1753 50.507 76.487 51.141Z" fill="#CEA561"/>
<path d="M81.7191 48.565C82.0328 49.2024 81.7707 49.9718 81.1357 50.286C80.4988 50.5986 79.727 50.337 79.4124 49.6996C79.1002 49.0661 79.3652 48.2933 79.9982 47.9811C80.6361 47.666 81.4074 47.931 81.7191 48.565Z" fill="#CEA561"/>
<path d="M65.3527 60.7776C65.6697 61.4136 65.4047 62.1825 64.7669 62.4976C64.1314 62.8112 63.363 62.5481 63.0508 61.9108C62.7371 61.2758 62.9978 60.5073 63.6356 60.1937C64.2721 59.8796 65.042 60.1412 65.3527 60.7776Z" fill="#CEA561"/>
<path d="M70.5945 58.2028C70.9067 58.8397 70.6455 59.6077 70.0043 59.9228C69.3722 60.2355 68.6023 59.9734 68.2901 59.3364C67.9745 58.7005 68.2361 57.932 68.8735 57.6189C69.5124 57.3043 70.2808 57.5664 70.5945 58.2028Z" fill="#CEA561"/>
<path d="M75.8301 55.6254C76.1408 56.2623 75.8816 57.0332 75.2442 57.3459C74.6078 57.66 73.8379 57.3969 73.5267 56.76C73.214 56.1241 73.4751 55.3556 74.1111 55.0415C74.7451 54.7293 75.5198 54.99 75.8301 55.6254Z" fill="#CEA561"/>
<path d="M81.0622 53.051C81.3729 53.6884 81.1127 54.4573 80.4792 54.77C79.8408 55.0841 79.0738 54.8196 78.7626 54.1836C78.4485 53.5477 78.7062 52.7797 79.3432 52.4666C79.9781 52.1534 80.7471 52.415 81.0622 53.051Z" fill="#CEA561"/>
<path d="M64.1238 65.6779C64.437 66.3124 64.1754 67.0837 63.537 67.3968C62.902 67.709 62.135 67.446 61.8199 66.8115C61.5077 66.1751 61.7655 65.4047 62.4039 65.093C63.0417 64.7793 63.8131 65.0419 64.1238 65.6779Z" fill="#CEA561"/>
<path d="M69.361 63.1015C69.6737 63.7365 69.4092 64.5083 68.7732 64.821C68.1349 65.1327 67.3698 64.8696 67.0576 64.2351C66.7469 63.5992 67.0032 62.8288 67.6401 62.5166C68.2746 62.2035 69.044 62.4656 69.361 63.1015Z" fill="#CEA561"/>
<path d="M74.5923 60.5255C74.9069 61.161 74.6434 61.9323 74.0089 62.2445C73.3715 62.5567 72.6035 62.2937 72.2928 61.6582C71.9801 61.0222 72.2384 60.2524 72.8772 59.9406C73.5107 59.628 74.2826 59.8891 74.5923 60.5255Z" fill="#CEA561"/>
<path d="M79.8331 57.9493C80.1463 58.5848 79.8818 59.3551 79.2458 59.6692C78.6128 59.9814 77.8419 59.7189 77.5312 59.0829C77.2175 58.4465 77.4787 57.6766 78.1146 57.3644C78.7511 57.0512 79.5219 57.3129 79.8331 57.9493Z" fill="#CEA561"/>
<path d="M85.0707 55.3734C85.3829 56.0079 85.1194 56.7783 84.4873 57.0919C83.8484 57.4037 83.0766 57.1435 82.7639 56.507C82.4517 55.8716 82.7167 55.0998 83.3498 54.7876C83.9867 54.4744 84.758 54.736 85.0707 55.3734Z" fill="#CEA561"/>
<path d="M68.7075 67.5851C69.0197 68.2206 68.7595 68.9895 68.1202 69.3051C67.4857 69.6173 66.7153 69.3542 66.4017 68.7187C66.0885 68.0828 66.3511 67.3124 66.9875 67.0012C67.6254 66.6861 68.3943 66.9482 68.7075 67.5851Z" fill="#CEA561"/>
<path d="M73.9395 65.0095C74.2532 65.6449 73.9911 66.4139 73.3503 66.729C72.7148 67.0407 71.9474 66.7791 71.6318 66.1421C71.3191 65.5062 71.5817 64.7358 72.2196 64.4251C72.8574 64.109 73.6244 64.3735 73.9395 65.0095Z" fill="#CEA561"/>
<path d="M79.1788 62.4324C79.4895 63.0684 79.2294 63.8388 78.5925 64.1524C77.9551 64.4646 77.1871 64.2035 76.8763 63.5661C76.5603 62.9306 76.8219 62.1617 77.4588 61.848C78.0938 61.5349 78.8651 61.797 79.1788 62.4324Z" fill="#CEA561"/>
<path d="M84.4149 59.8583C84.7252 60.4942 84.466 61.2641 83.8301 61.5768C83.1922 61.8885 82.4281 61.6259 82.1149 60.9904C81.7984 60.354 82.0605 59.5861 82.6945 59.2724C83.3329 58.9593 84.0984 59.2223 84.4149 59.8583Z" fill="#CEA561"/>
<path d="M64.0315 84.1299H20.9883V80.1311H64.0315V84.1299Z" fill="#151515" fill-opacity="0.7"/>
<path d="M64.0312 84.1299V83.2588H21.8584V81.0017H63.1602L63.1607 84.1299H64.0312H64.9014V79.2605H20.1172V85H64.9014V84.1299H64.0312Z" fill="#CEA561"/>
<path d="M64.0315 50.1396H20.9883V46.1418H64.0315V50.1396Z" fill="#151515" fill-opacity="0.7"/>
<path d="M64.0312 50.1402V49.2696H21.858V47.0129H63.1602L63.1607 50.1402H64.0312H64.9014V45.2717H20.1172V51.0107H64.9014V50.1402H64.0312Z" fill="#CEA561"/>
<path d="M66.2465 46.1416H18.7734C18.7734 46.1416 18.7734 40.9658 18.7734 38.4948C18.7734 33.6745 66.2465 34.615 66.2465 38.4948C66.2465 41.7887 66.2465 46.1416 66.2465 46.1416Z" fill="#151515" fill-opacity="0.7"/>
<path d="M66.2462 46.1421V45.2715H18.7731V46.1421H19.6433C19.6433 46.1421 19.6433 40.9663 19.6433 38.4953H19.5101L19.6383 38.5333L19.6433 38.4953H19.5101L19.6383 38.5333L19.5807 38.516L19.6356 38.5405L19.6383 38.5333L19.5807 38.516L19.6356 38.5405L19.6505 38.5179C19.6927 38.4529 19.8952 38.277 20.2537 38.1069C20.8791 37.8005 21.9331 37.4922 23.2676 37.2373C25.2738 36.8505 27.9245 36.5619 30.9109 36.3735C33.8979 36.1842 37.2243 36.0936 40.6039 36.0936C46.8081 36.0931 53.1976 36.4 58 36.9574C60.3988 37.2344 62.4064 37.5784 63.7569 37.9595C64.4294 38.1469 64.9387 38.3517 65.2099 38.5155C65.3453 38.595 65.4156 38.6639 65.4219 38.674H65.4224L65.6719 38.4953H65.3752C65.3737 38.5921 65.4176 38.6716 65.4224 38.674L65.6719 38.4953H65.3752C65.3752 41.7892 65.3752 46.1421 65.3752 46.1421H66.2462H67.1163C67.1163 46.1421 67.1163 41.7892 67.1163 38.4953C67.1183 38.1262 66.9583 37.7962 66.768 37.5693C66.5873 37.351 66.3778 37.1911 66.1475 37.048C65.7153 36.784 65.194 36.5778 64.5648 36.3826C63.4663 36.0454 62.0393 35.7587 60.3463 35.5082C55.276 34.7605 47.8301 34.3534 40.6039 34.3524C34.9764 34.3529 29.4956 34.6 25.3747 35.1406C23.3113 35.4128 21.5938 35.7525 20.3192 36.2005C19.68 36.4284 19.1486 36.677 18.714 37.0147C18.4976 37.1853 18.3024 37.3823 18.1513 37.63C18 37.8757 17.9008 38.1816 17.9024 38.4953C17.9024 40.9663 17.9024 46.1421 17.9024 46.1421V47.0127H67.1163V46.1421H66.2462Z" fill="#CEA561"/>
<path d="M67.6801 77.4257C67.6801 79.9594 65.6282 82.0137 63.0912 82.0137H21.4568C18.9256 82.0137 16.8711 79.9594 16.8711 77.4257V52.7271C16.8711 50.1948 18.9256 48.1405 21.4568 48.1405H63.0912C65.6282 48.1405 67.6801 50.1948 67.6801 52.7271V77.4257Z" fill="#151515" fill-opacity="0.7"/>
<path d="M67.6798 77.4262H66.8092C66.8088 78.4558 66.3949 79.3793 65.7209 80.0548C65.0459 80.7288 64.1218 81.1431 63.0908 81.1436H21.4565C20.4288 81.1436 19.5053 80.7293 18.8301 80.0548C18.156 79.3793 17.7415 78.4553 17.741 77.4262V52.7276C17.7415 51.699 18.1558 50.7754 18.8299 50.1004C19.5051 49.4264 20.4288 49.0121 21.4565 49.0116H63.0908C64.1218 49.0121 65.0459 49.4264 65.7214 50.1004C66.3949 50.7754 66.8088 51.699 66.8092 52.7276V77.4262H67.6798H68.5504V52.7276C68.5499 49.7141 66.1087 47.2709 63.0908 47.2705H21.4565C18.4437 47.2714 16.0007 49.7136 16 52.7276V77.4262C16.0007 80.4412 18.4435 82.8843 21.4565 82.8848H63.0908C66.1087 82.8848 68.5499 80.4402 68.5504 77.4262H67.6798Z" fill="#CEA561"/>
<path d="M21.5225 44.5544C21.5225 44.7803 21.2722 44.9648 20.9688 44.9648C20.6626 44.9648 20.418 44.7803 20.418 44.5544V39.9654C20.418 39.739 20.6626 39.5549 20.9688 39.5549C21.2722 39.5549 21.5225 39.739 21.5225 39.9654V44.5544Z" fill="#CEA561"/>
<path d="M24.6468 44.5544C24.6468 44.7803 24.3969 44.9648 24.0926 44.9648C23.7849 44.9648 23.5391 44.7803 23.5391 44.5544V39.9654C23.5391 39.739 23.7849 39.5549 24.0926 39.5549C24.3969 39.5549 24.6468 39.739 24.6468 39.9654V44.5544Z" fill="#CEA561"/>
<path d="M27.7672 44.5544C27.7672 44.7803 27.5173 44.9648 27.2143 44.9648C26.9058 44.9648 26.66 44.7803 26.66 44.5544V39.9654C26.66 39.739 26.9058 39.5549 27.2143 39.5549C27.5173 39.5549 27.7672 39.739 27.7672 39.9654V44.5544Z" fill="#CEA561"/>
<path d="M30.8863 44.5544C30.8863 44.7803 30.6388 44.9648 30.3332 44.9648C30.0302 44.9648 29.7812 44.7803 29.7812 44.5544V39.9654C29.7812 39.739 30.0302 39.5549 30.3332 39.5549C30.6388 39.5549 30.8863 39.739 30.8863 39.9654V44.5544Z" fill="#CEA561"/>
<path d="M34.0009 44.5544C34.0009 44.7803 33.751 44.9648 33.4491 44.9648C33.1442 44.9648 32.8984 44.7803 32.8984 44.5544V39.9654C32.8984 39.739 33.1442 39.5549 33.4491 39.5549C33.751 39.5549 34.0009 39.739 34.0009 39.9654V44.5544Z" fill="#CEA561"/>
<path d="M37.1156 44.5544C37.1156 44.7803 36.8655 44.9648 36.5644 44.9648C36.2614 44.9648 36.0156 44.7803 36.0156 44.5544V39.9654C36.0156 39.739 36.2614 39.5549 36.5644 39.5549C36.8655 39.5549 37.1156 39.739 37.1156 39.9654V44.5544Z" fill="#CEA561"/>
<path d="M40.2359 44.5544C40.2359 44.7803 39.9881 44.9648 39.6841 44.9648C39.3796 44.9648 39.1289 44.7803 39.1289 44.5544V39.9654C39.1289 39.739 39.3796 39.5549 39.6841 39.5549C39.9881 39.5549 40.2359 39.739 40.2359 39.9654V44.5544Z" fill="#CEA561"/>
<path d="M43.3571 44.5544C43.3571 44.7803 43.1113 44.9648 42.807 44.9648C42.5017 44.9648 42.254 44.7803 42.254 44.5544V39.9654C42.254 39.739 42.5017 39.5549 42.807 39.5549C43.1113 39.5549 43.3571 39.739 43.3571 39.9654V44.5544Z" fill="#CEA561"/>
<path d="M46.4754 44.5544C46.4754 44.7803 46.2251 44.9648 45.9222 44.9648C45.6199 44.9648 45.3711 44.7803 45.3711 44.5544V39.9654C45.3711 39.739 45.6199 39.5549 45.9222 39.5549C46.2251 39.5549 46.4754 39.739 46.4754 39.9654V44.5544Z" fill="#CEA561"/>
<path d="M49.5911 44.5544C49.5911 44.7803 49.3444 44.9648 49.0409 44.9648C48.734 44.9648 48.4883 44.7803 48.4883 44.5544V39.9654C48.4883 39.739 48.734 39.5549 49.0409 39.5549C49.3444 39.5549 49.5911 39.739 49.5911 39.9654V44.5544Z" fill="#CEA561"/>
<path d="M52.7088 44.5544C52.7088 44.7803 52.463 44.9648 52.1576 44.9648C51.8546 44.9648 51.6055 44.7803 51.6055 44.5544V39.9654C51.6055 39.739 51.8546 39.5549 52.1576 39.5549C52.463 39.5549 52.7088 39.739 52.7088 39.9654V44.5544Z" fill="#CEA561"/>
<path d="M55.8298 44.5544C55.8298 44.7803 55.5822 44.9648 55.2757 44.9648C54.9713 44.9648 54.7227 44.7803 54.7227 44.5544V39.9654C54.7227 39.739 54.9713 39.5549 55.2757 39.5549C55.5822 39.5549 55.8298 39.739 55.8298 39.9654V44.5544Z" fill="#CEA561"/>
<path d="M58.9465 44.5544C58.9465 44.7803 58.7018 44.9648 58.3944 44.9648C58.0913 44.9648 57.8398 44.7803 57.8398 44.5544V39.9654C57.8398 39.739 58.0913 39.5549 58.3944 39.5549C58.7018 39.5549 58.9465 39.739 58.9465 39.9654V44.5544Z" fill="#CEA561"/>
<path d="M62.0661 44.5544C62.0661 44.7803 61.819 44.9648 61.514 44.9648C61.2095 44.9648 60.9609 44.7803 60.9609 44.5544V39.9654C60.9609 39.739 61.2095 39.5549 61.514 39.5549C61.819 39.5549 62.0661 39.739 62.0661 39.9654V44.5544Z" fill="#CEA561"/>
<path d="M65.1839 44.5544C65.1839 44.7803 64.9377 44.9648 64.6332 44.9648C64.3277 44.9648 64.082 44.7803 64.082 44.5544V39.9654C64.082 39.739 64.3277 39.5549 64.6332 39.5549C64.9377 39.5549 65.1839 39.739 65.1839 39.9654V44.5544Z" fill="#CEA561"/>
<path d="M23.5391 63.8875C23.5391 69.9185 32.1662 74.8057 42.8053 74.8057C53.4424 74.8057 62.0682 69.9185 62.0682 63.8875C62.0682 57.8595 53.4424 52.9713 42.8053 52.9713C32.1662 52.9713 23.5391 57.8595 23.5391 63.8875Z" fill="#CEA561"/>
<path d="M41.8422 63.2041L40.7412 71.7852H38.5092L37.8332 67.0521L37.1956 71.7852H35.2723L34.207 63.2041H35.9012L36.3745 67.1658L37.0253 63.2041H39.1494L39.6628 67.1658L40.298 63.2041H41.8422Z" fill="#151515" fill-opacity="0.7"/>
<path d="M44.3698 70.4876V68.6982C43.9789 68.7941 43.7836 68.9695 43.7836 69.2248V70.4876C43.7836 70.6991 43.8852 70.8046 44.0885 70.8046C44.2763 70.8046 44.3698 70.6991 44.3698 70.4876ZM46.0752 71.786H44.5674V71.5166C44.4394 71.7599 44.0743 71.8818 43.4721 71.8818C42.5424 71.8818 42.0781 71.5186 42.0781 70.7925V69.3982C42.0781 69.087 42.1905 68.8158 42.4158 68.5845C42.6412 68.3533 43.0954 68.0642 43.7776 67.7168C44.1722 67.5179 44.3698 67.3579 44.3698 67.2384V66.2088C44.3698 65.9819 44.272 65.8682 44.0768 65.8682C43.8532 65.8682 43.7412 66.1453 43.7412 66.6998C43.7412 66.7995 43.7475 66.9474 43.7597 67.1425C43.7751 67.3381 43.7836 67.4856 43.7836 67.5853H42.1378V66.1973C42.1378 65.2597 42.8159 64.791 44.1722 64.791C45.4406 64.791 46.0752 65.2795 46.0752 66.257V71.786Z" fill="#151515" fill-opacity="0.7"/>
<path d="M51.0457 71.7852H49.1663L48.5804 69.9004L48.0297 71.7852H46.3242L47.6588 68.1111L46.3604 64.8383H48.1613L48.7418 66.6392L49.2029 64.8383H50.8241L49.6813 68.1949L51.0457 71.7852Z" fill="#151515" fill-opacity="0.7"/>
<path d="M34.3379 57.3792C34.4084 57.5045 34.488 57.6437 34.5772 57.7974C34.6668 57.9506 34.7616 58.1125 34.8623 58.283C34.963 58.4531 35.0686 58.629 35.1776 58.8106C35.2869 58.9927 35.3974 59.1748 35.51 59.3584C35.6219 59.5415 35.733 59.7221 35.8431 59.9009C35.9531 60.0796 36.0595 60.2511 36.1624 60.4149C36.2653 60.5792 36.3634 60.7334 36.4556 60.8765C36.5479 61.0205 36.6316 61.1487 36.7063 61.2614C36.7063 60.8524 36.7072 60.48 36.7088 60.1437C36.7101 59.8079 36.7133 59.5048 36.7182 59.2346C36.7223 58.9643 36.7279 58.7243 36.7342 58.5143C36.7402 58.3042 36.7483 58.1202 36.7581 57.9622C36.768 57.8041 36.7791 57.6697 36.7925 57.5589C36.8051 57.4486 36.8202 57.3571 36.8371 57.2853C36.8508 57.2241 36.87 57.1735 36.8955 57.133L36.9824 57.0357L37.0902 56.9842L37.2126 56.9692C37.3148 56.9692 37.4211 56.9914 37.5312 57.0357V57.0588C37.4563 57.1639 37.3917 57.3016 37.3371 57.4707C37.2831 57.6403 37.237 57.8287 37.1988 58.0354C37.1608 58.2426 37.1298 58.4603 37.1062 58.6892C37.0822 58.9185 37.0639 59.1454 37.0498 59.3709C37.036 59.5959 37.0259 59.8122 37.0193 60.0203C37.0121 60.228 37.0065 60.413 37.0018 60.5768C36.9989 60.7204 36.9958 60.8606 36.9929 60.9969C36.9896 61.1337 36.9873 61.2706 36.9848 61.4069C36.9824 61.5437 36.9805 61.682 36.9788 61.8217C36.9773 61.9614 36.9769 62.105 36.9769 62.2534L36.6973 62.29L36.6561 62.2852C36.6103 62.2211 36.552 62.1354 36.481 62.0279C36.4099 61.92 36.3299 61.7967 36.2414 61.6579C36.153 61.5187 36.057 61.3669 35.9539 61.2022C35.851 61.0369 35.7442 60.8654 35.633 60.6866C35.5225 60.5079 35.41 60.3253 35.2954 60.1393C35.181 59.9529 35.0675 59.7684 34.9551 59.5848C34.8432 59.4017 34.734 59.223 34.6277 59.0491C34.5219 58.8751 34.4222 58.7113 34.329 58.5576C34.2356 58.4044 34.1512 58.2642 34.075 58.1375C33.9982 58.0108 33.9332 57.9029 33.8802 57.8143C33.8768 58.152 33.8721 58.4806 33.8649 58.8005C33.8583 59.1204 33.8495 59.4277 33.8386 59.7221C33.8279 60.017 33.816 60.2969 33.8034 60.5619C33.7902 60.8268 33.7761 61.073 33.761 61.3004C33.7501 61.4609 33.739 61.5972 33.7277 61.7104C33.7162 61.8236 33.7021 61.9181 33.6861 61.9932C33.6701 62.0689 33.6506 62.1291 33.6271 62.1729C33.603 62.2178 33.5738 62.2505 33.5386 62.2727C33.5036 62.2948 33.4612 62.3093 33.4128 62.3151C33.3639 62.3213 33.3056 62.3242 33.2388 62.3242H33.1767L33.1312 62.3233L33.06 62.3199L33.028 62.2968C33.0933 62.1489 33.1516 61.9831 33.203 61.7996C33.2542 61.6165 33.299 61.4223 33.337 61.2166C33.3752 61.0114 33.4086 60.7994 33.4367 60.5802C33.465 60.361 33.4882 60.1418 33.5066 59.9216C33.5249 59.7019 33.5399 59.4851 33.5512 59.2721C33.5631 59.0592 33.5713 58.8568 33.5775 58.6641C33.5835 58.4719 33.5873 58.2932 33.5892 58.1284C33.5907 57.9636 33.5913 57.82 33.5913 57.6977C33.5913 57.6321 33.5866 57.5758 33.5766 57.5295C33.5668 57.4828 33.5484 57.4443 33.5214 57.4149C33.4948 57.385 33.4586 57.3633 33.4128 57.3493C33.3667 57.3358 33.3075 57.3291 33.2341 57.3291C33.1823 57.3291 33.1234 57.332 33.0591 57.3383C32.9941 57.344 32.9204 57.3532 32.8379 57.3652L32.8125 57.1639C32.9408 57.1349 33.0568 57.1089 33.1607 57.0863C33.2646 57.0632 33.3583 57.0439 33.4426 57.029C33.5264 57.0135 33.6026 57.0015 33.6701 56.9933C33.7384 56.9851 33.7996 56.9808 33.8545 56.9808C33.911 56.9808 33.9605 56.9875 34.0025 57.001L34.1195 57.068C34.1553 57.0983 34.1901 57.1393 34.2244 57.1904C34.2588 57.2414 34.297 57.3045 34.3379 57.3792Z" fill="#151515" fill-opacity="0.7"/>
<path d="M38.4223 61.4724C38.4223 61.5317 38.4285 61.5885 38.4415 61.643C38.4543 61.6974 38.475 61.7451 38.5032 61.786L38.6111 61.8834C38.6547 61.907 38.707 61.9185 38.7682 61.9185C38.8367 61.9185 38.9079 61.9026 38.9809 61.8708C39.0543 61.8386 39.1267 61.7947 39.1973 61.7379C39.2682 61.6815 39.3364 61.6141 39.4013 61.5355C39.4664 61.4565 39.5248 61.3707 39.5765 61.2773C39.6281 61.1843 39.6715 61.086 39.7058 60.9834C39.74 60.8803 39.7626 60.7743 39.7736 60.6659C39.6606 60.6693 39.5483 60.676 39.4367 60.6876C39.3253 60.6991 39.2193 60.717 39.1196 60.7415C39.0192 60.7661 38.9267 60.7979 38.841 60.8379C38.756 60.8774 38.682 60.9266 38.6203 60.9853C38.5582 61.0446 38.5098 61.114 38.475 61.1939C38.4396 61.2744 38.4223 61.3669 38.4223 61.4724ZM39.8285 59.8989C39.8285 59.778 39.8084 59.6734 39.7689 59.5848C39.7293 59.4966 39.6772 59.4239 39.6132 59.3675C39.5491 59.3107 39.4768 59.2687 39.3959 59.2413C39.3143 59.2138 39.2334 59.1998 39.1531 59.1998C39.0443 59.1998 38.9527 59.2114 38.8777 59.2345C38.8028 59.2577 38.7422 59.289 38.6958 59.3285C38.6491 59.368 38.6156 59.4152 38.5951 59.4692C38.5742 59.5236 38.5638 59.5819 38.5638 59.6445C38.5638 59.7178 38.5775 59.7915 38.6043 59.8657C38.6308 59.9399 38.6701 60.0116 38.7219 60.082L38.7131 60.107C38.6259 60.1499 38.538 60.1716 38.4496 60.1716C38.3978 60.1716 38.3493 60.1629 38.3043 60.147C38.2589 60.1311 38.22 60.108 38.1876 60.0772C38.1545 60.0468 38.1287 60.0097 38.1095 59.9649C38.0901 59.9211 38.0807 59.871 38.0807 59.816C38.0807 59.7264 38.1024 59.6412 38.146 59.5621C38.1895 59.4826 38.2473 59.4099 38.3188 59.3444C38.3907 59.2789 38.4741 59.2201 38.5687 59.168C38.6632 59.116 38.7611 59.0722 38.8618 59.0365C38.9624 59.0004 39.0635 58.9729 39.1653 58.9541C39.2667 58.9349 39.3614 58.9252 39.4486 58.9252C39.6085 58.9252 39.7457 58.9469 39.8592 58.9893C39.973 59.0322 40.0652 59.0943 40.1364 59.1762C40.2074 59.2577 40.2597 59.3569 40.292 59.4725C40.325 59.5886 40.3415 59.7202 40.3415 59.8666C40.3415 59.9673 40.3372 60.0781 40.3287 60.1986C40.3202 60.3195 40.3109 60.4457 40.2999 60.5777C40.2898 60.7097 40.2798 60.8461 40.2717 60.9868C40.2634 61.127 40.2591 61.2667 40.2591 61.4059C40.2591 61.6256 40.2999 61.7909 40.3814 61.9017C40.4633 62.0125 40.5706 62.0679 40.7033 62.0679C40.8209 62.0679 40.9523 62.024 41.0975 61.9373L41.1638 62.0356C41.0612 62.1382 40.9498 62.2158 40.8294 62.2693C40.7089 62.3228 40.5819 62.3497 40.4492 62.3497C40.35 62.3497 40.2581 62.3324 40.1744 62.2991C40.0903 62.2654 40.0178 62.2153 39.9565 62.1493C39.8955 62.0828 39.8482 61.999 39.8144 61.8983C39.7811 61.7976 39.7641 61.6805 39.7641 61.5476L39.7679 61.4286C39.7698 61.3891 39.7751 61.3471 39.7824 61.3028H39.7689C39.703 61.4343 39.6274 61.5635 39.5411 61.6911C39.4546 61.8183 39.3601 61.932 39.257 62.0322C39.1538 62.1325 39.0437 62.2134 38.927 62.275C38.8103 62.3367 38.6877 62.368 38.5597 62.368C38.4543 62.368 38.358 62.3497 38.2708 62.3126C38.1839 62.276 38.1095 62.2259 38.0478 62.1618C37.9857 62.0978 37.9377 62.0216 37.9032 61.934C37.869 61.8463 37.8515 61.7499 37.8515 61.6463C37.8515 61.5119 37.8766 61.3895 37.9264 61.2797C37.9757 61.1698 38.0446 61.0716 38.1325 60.9844C38.22 60.8972 38.3248 60.822 38.4471 60.7589C38.5695 60.6953 38.7021 60.6428 38.8458 60.6009C38.9891 60.5589 39.1412 60.5276 39.3018 60.5069C39.4621 60.4862 39.6253 60.4761 39.792 60.4761C39.8021 60.3797 39.8112 60.2867 39.8181 60.1966C39.8247 60.1066 39.8285 60.0073 39.8285 59.8989Z" fill="#151515" fill-opacity="0.7"/>
<path d="M42.4485 57.3023C42.384 57.5923 42.3303 57.892 42.287 58.2008C42.2434 58.5101 42.2061 58.8151 42.1756 59.1162C42.2475 59.1191 42.3171 59.1215 42.3853 59.1229C42.453 59.1244 42.5166 59.1258 42.5756 59.1278C42.6342 59.1287 42.6879 59.1297 42.7359 59.1297C42.7839 59.1297 42.824 59.1297 42.856 59.1297C42.995 59.1297 43.1085 59.1215 43.1975 59.1046L43.2158 59.1755L43.2223 59.2352C43.2223 59.3022 43.1945 59.346 43.1392 59.3658C43.0831 59.3855 43.0028 59.3956 42.8971 59.3956C42.7965 59.3956 42.6838 59.3894 42.5595 59.3773C42.4348 59.3648 42.2987 59.3532 42.1506 59.3426C42.1337 59.5064 42.1195 59.6654 42.1082 59.8206C42.097 59.9752 42.0876 60.1217 42.0804 60.259C42.0738 60.3963 42.0687 60.524 42.0659 60.6415C42.0627 60.7591 42.0612 60.8612 42.0612 60.9484C42.0612 61.1117 42.0697 61.2577 42.0866 61.3859C42.1032 61.514 42.1333 61.6229 42.1756 61.712C42.2183 61.8017 42.277 61.8701 42.352 61.9173C42.4269 61.9645 42.5217 61.9886 42.6361 61.9886C42.7184 61.9886 42.8106 61.9737 42.9124 61.9447C43.0134 61.9158 43.1292 61.8691 43.2591 61.805C43.3004 61.8465 43.324 61.8966 43.3302 61.9563C43.2356 62.0189 43.1399 62.0758 43.0439 62.1269C42.9476 62.1779 42.8529 62.2218 42.76 62.2584C42.6666 62.295 42.5763 62.3234 42.4893 62.3432C42.4024 62.3629 42.32 62.373 42.2423 62.373C42.1399 62.373 42.0461 62.3543 41.9614 62.3172C41.8768 62.2796 41.8034 62.2131 41.7418 62.1177C41.6801 62.0223 41.6317 61.8937 41.5973 61.7318C41.563 61.5699 41.5459 61.3652 41.5459 61.118C41.5459 60.9788 41.5483 60.8357 41.5525 60.6883C41.5574 60.5413 41.5634 60.392 41.5709 60.2407C41.5785 60.0894 41.5888 59.9381 41.6011 59.7873C41.6127 59.636 41.6268 59.4872 41.6421 59.3402C41.5217 59.3422 41.4095 59.347 41.3065 59.3557C41.2036 59.3638 41.1149 59.3773 41.0421 59.3956L41.0352 59.3634L41.082 59.2728C41.1133 59.2448 41.1569 59.2193 41.2125 59.1962C41.2685 59.1731 41.3351 59.1543 41.4129 59.1388C41.491 59.1239 41.5766 59.1128 41.6698 59.1071C41.7045 58.7876 41.7422 58.4865 41.7817 58.2023C41.8212 57.918 41.8611 57.6646 41.9009 57.442L41.9432 57.3432L42.0155 57.2816L42.105 57.2493L42.1986 57.2401C42.2488 57.2401 42.2945 57.2454 42.335 57.256L42.4485 57.3023Z" fill="#151515" fill-opacity="0.7"/>
<path d="M46.4269 58.9712C46.4132 59.1162 46.4003 59.2699 46.3887 59.4328C46.3774 59.5956 46.367 59.758 46.358 59.9208C46.3488 60.0832 46.342 60.2426 46.3373 60.3982C46.3328 60.5539 46.3303 60.6974 46.3303 60.829C46.3303 61.0776 46.345 61.2814 46.374 61.4394C46.4028 61.5974 46.4404 61.7217 46.4859 61.8128C46.5321 61.9033 46.5844 61.966 46.6431 62.0002C46.702 62.0349 46.7613 62.0517 46.8206 62.0517L46.925 62.0382L47.0219 62.005L47.1057 61.9626L47.171 61.9212L47.2468 62.0267C47.2023 62.0724 47.1518 62.1158 47.0954 62.1563C47.0389 62.1967 46.9796 62.2319 46.9171 62.2613C46.8539 62.2912 46.7886 62.3148 46.7199 62.3312C46.6512 62.348 46.5816 62.3567 46.5116 62.3567C46.4231 62.3567 46.3369 62.3389 46.2535 62.3037C46.1704 62.269 46.0964 62.2098 46.0317 62.1264C45.9665 62.0431 45.9144 61.9322 45.8749 61.7945C45.835 61.6562 45.8153 61.4847 45.8153 61.2799C45.8153 61.2144 45.8166 61.1484 45.8197 61.0819C45.8228 61.0154 45.8278 60.9451 45.8344 60.8699C45.8416 60.7952 45.8504 60.7148 45.8608 60.6295C45.8717 60.5437 45.8837 60.4493 45.8975 60.3457L45.8724 60.3409C45.7686 60.7244 45.6562 61.0458 45.5346 61.3054C45.4135 61.5651 45.2887 61.7742 45.161 61.9327C45.0337 62.0917 44.9057 62.2049 44.7777 62.2729C44.6492 62.3408 44.5268 62.375 44.4113 62.375C44.2737 62.375 44.1595 62.3379 44.0688 62.2637C43.9779 62.1895 43.9054 62.0893 43.8508 61.9616C43.7966 61.834 43.7586 61.686 43.7364 61.5174C43.7144 61.3483 43.7031 61.1691 43.7031 60.9802C43.7031 60.8198 43.7082 60.655 43.7182 60.4864C43.7279 60.3178 43.7413 60.1521 43.7573 59.9897C43.7733 59.8269 43.7916 59.6717 43.8122 59.5243C43.8324 59.3774 43.8537 59.2453 43.8753 59.1292L43.9129 59.0261L43.9737 58.9669L44.0494 58.9389L44.1316 58.9322C44.1834 58.9322 44.2319 58.9384 44.2771 58.9505C44.3223 58.963 44.3669 58.9804 44.4113 59.0035C44.3835 59.176 44.3581 59.348 44.3345 59.519C44.3104 59.69 44.2897 59.8558 44.2724 60.0167C44.2551 60.1781 44.2414 60.3332 44.2316 60.483C44.2212 60.6329 44.2163 60.7726 44.2163 60.9022C44.2163 61.0429 44.2235 61.1706 44.238 61.2857C44.2526 61.4013 44.2765 61.5001 44.3104 61.5825C44.3439 61.6649 44.3872 61.7284 44.4399 61.7737C44.4926 61.8185 44.5569 61.8412 44.6332 61.8412C44.7632 61.8412 44.8959 61.7713 45.0318 61.6316C45.1676 61.4919 45.2975 61.2876 45.4214 61.0188C45.5446 60.7504 45.65 60.4484 45.7372 60.113C45.8241 59.7782 45.88 59.4164 45.9044 59.0285L46.39 58.9688L46.4269 58.9712Z" fill="#151515" fill-opacity="0.7"/>
<path d="M47.6977 62.3135L47.6606 62.3111C47.6731 62.1665 47.6842 62.0085 47.6952 61.8375C47.7058 61.6664 47.716 61.4925 47.7246 61.3162C47.7343 61.1399 47.742 60.965 47.7487 60.7915C47.756 60.6186 47.7617 60.4567 47.767 60.3059C47.7728 60.1556 47.7767 60.0212 47.7791 59.9017C47.781 59.7827 47.782 59.6887 47.782 59.6203C47.782 59.5635 47.78 59.5148 47.7752 59.4734L47.7444 59.3703L47.6745 59.3096C47.6437 59.297 47.6027 59.2903 47.5507 59.2903L47.4707 59.2951L47.379 59.3086L47.2654 59.3327C47.2237 59.3423 47.1751 59.3544 47.1202 59.3683L47.0859 59.2031C47.3394 59.1116 47.5444 59.047 47.702 59.0094C47.8595 58.9723 47.965 58.9535 48.0204 58.9535C48.1211 58.9535 48.1934 58.9829 48.2368 59.0417C48.2806 59.1005 48.3018 59.1882 48.3018 59.3038C48.3018 59.3149 48.3008 59.3462 48.2975 59.3982C48.2946 59.4498 48.2902 59.5177 48.2849 59.6006C48.2796 59.6839 48.2729 59.7807 48.2652 59.8906C48.258 60.0004 48.2488 60.1185 48.2392 60.2442C48.2291 60.3705 48.2185 60.5015 48.2059 60.6383C48.1939 60.7751 48.1809 60.911 48.1669 61.0469L48.19 61.0493C48.2628 60.7501 48.3457 60.4711 48.4386 60.2124C48.5307 59.9532 48.6347 59.7287 48.7499 59.5379C48.865 59.3467 48.9917 59.1968 49.13 59.0875C49.2683 58.9786 49.42 58.9237 49.5848 58.9237C49.6431 58.9237 49.697 58.9328 49.7472 58.9511C49.7977 58.9694 49.8416 58.9954 49.8777 59.0282C49.9143 59.061 49.9437 59.0995 49.9649 59.1448C49.9866 59.1896 49.9972 59.2392 49.9972 59.2927C49.9972 59.3611 49.9823 59.4276 49.9524 59.4907C49.9225 59.5538 49.8758 59.6102 49.8112 59.6593H49.7929C49.7289 59.6054 49.6681 59.5673 49.6108 59.5432C49.554 59.5196 49.4933 59.5081 49.4287 59.5081C49.3603 59.5081 49.2938 59.5206 49.2297 59.5471C49.1652 59.5726 49.1064 59.6102 49.0534 59.6593C48.9662 59.7384 48.8852 59.8434 48.8106 59.974C48.7359 60.1045 48.6675 60.249 48.6053 60.408C48.5437 60.567 48.4878 60.7337 48.4386 60.9086C48.3885 61.0835 48.3457 61.2536 48.31 61.4193C48.2743 61.585 48.245 61.7406 48.2228 61.8866C48.2011 62.0321 48.1852 62.155 48.1761 62.2542L47.6977 62.3135Z" fill="#151515" fill-opacity="0.7"/>
<path d="M50.5118 61.4724C50.5118 61.5317 50.518 61.5885 50.531 61.643C50.5441 61.6974 50.5648 61.7451 50.5927 61.786L50.7006 61.8834C50.7445 61.907 50.7965 61.9185 50.8577 61.9185C50.9266 61.9185 50.9974 61.9026 51.0706 61.8708C51.1439 61.8386 51.2161 61.7947 51.287 61.7379C51.3578 61.6815 51.4262 61.6141 51.4912 61.5355C51.5558 61.4565 51.6141 61.3707 51.6661 61.2773C51.7177 61.1843 51.761 61.086 51.7952 60.9834C51.8299 60.8803 51.8526 60.7743 51.8632 60.6659C51.7504 60.6693 51.6377 60.676 51.5264 60.6876C51.4146 60.6991 51.3091 60.717 51.2094 60.7415C51.1092 60.7661 51.0162 60.7979 50.9309 60.8379C50.8457 60.8774 50.7715 60.9266 50.7103 60.9853C50.6481 61.0446 50.5995 61.114 50.5648 61.1939C50.5296 61.2744 50.5118 61.3669 50.5118 61.4724ZM51.9181 59.8989C51.9181 59.778 51.8979 59.6734 51.8584 59.5848C51.8189 59.4966 51.7668 59.4239 51.7027 59.3675C51.6387 59.3107 51.5664 59.2687 51.4855 59.2413C51.404 59.2138 51.3231 59.1998 51.2426 59.1998C51.1338 59.1998 51.0422 59.2114 50.9675 59.2345C50.8924 59.2577 50.8317 59.289 50.7854 59.3285C50.7387 59.368 50.7055 59.4152 50.6847 59.4692C50.664 59.5236 50.6534 59.5819 50.6534 59.6445C50.6534 59.7178 50.6674 59.7915 50.6939 59.8657C50.7204 59.9399 50.7599 60.0116 50.8114 60.082L50.8028 60.107C50.7156 60.1499 50.6279 60.1716 50.5392 60.1716C50.4877 60.1716 50.439 60.1629 50.3937 60.147C50.3489 60.1311 50.3094 60.108 50.2771 60.0772C50.2444 60.0468 50.2184 60.0097 50.1991 59.9649C50.1798 59.9211 50.1702 59.871 50.1702 59.816C50.1702 59.7264 50.1919 59.6412 50.2357 59.5621C50.2791 59.4826 50.3369 59.4099 50.4087 59.3444C50.4805 59.2789 50.5638 59.2201 50.6582 59.168C50.7527 59.116 50.8509 59.0722 50.9512 59.0365C51.0519 59.0004 51.153 58.9729 51.2547 58.9541C51.3563 58.9349 51.4513 58.9252 51.538 58.9252C51.6979 58.9252 51.8352 58.9469 51.9489 58.9893C52.0626 59.0322 52.1551 59.0943 52.226 59.1762C52.2968 59.2577 52.3493 59.3569 52.3816 59.4725C52.4148 59.5886 52.4312 59.7202 52.4312 59.8666C52.4312 59.9673 52.4269 60.0781 52.4182 60.1986C52.41 60.3195 52.4004 60.4457 52.3898 60.5777C52.3792 60.7097 52.3695 60.8461 52.3613 60.9868C52.3531 61.127 52.3488 61.2667 52.3488 61.4059C52.3488 61.6256 52.3898 61.7909 52.4712 61.9017C52.5531 62.0125 52.66 62.0679 52.793 62.0679C52.9106 62.0679 53.0416 62.024 53.1871 61.9373L53.2536 62.0356C53.151 62.1382 53.0392 62.2158 52.9188 62.2693C52.7983 62.3228 52.6716 62.3497 52.5386 62.3497C52.4394 62.3497 52.3478 62.3324 52.264 62.2991C52.1797 62.2654 52.1074 62.2153 52.0462 62.1493C51.9851 62.0828 51.9379 61.999 51.9041 61.8983C51.8709 61.7976 51.854 61.6805 51.854 61.5476L51.8574 61.4286C51.8593 61.3891 51.8646 61.3471 51.8723 61.3028H51.8584C51.7928 61.4343 51.7167 61.5635 51.631 61.6911C51.5442 61.8183 51.4498 61.932 51.3467 62.0322C51.2436 62.1325 51.1333 62.2134 51.0167 62.275C50.9001 62.3367 50.7772 62.368 50.6496 62.368C50.5441 62.368 50.4477 62.3497 50.3605 62.3126C50.2733 62.276 50.1991 62.2259 50.1374 62.1618C50.0753 62.0978 50.0276 62.0216 49.9929 61.934C49.9587 61.8463 49.9413 61.7499 49.9413 61.6463C49.9413 61.5119 49.9664 61.3895 50.016 61.2797C50.0656 61.1698 50.1341 61.0716 50.2222 60.9844C50.3094 60.8972 50.4145 60.822 50.5368 60.7589C50.6592 60.6953 50.7917 60.6428 50.9353 60.6009C51.0788 60.5589 51.2311 60.5276 51.3915 60.5069C51.5519 60.4862 51.7148 60.4761 51.8815 60.4761C51.8921 60.3797 51.9008 60.2867 51.908 60.1966C51.9147 60.1066 51.9181 60.0073 51.9181 59.8989Z" fill="#151515" fill-opacity="0.7"/>
<path d="M54.4766 56.1063C54.4458 56.3659 54.4159 56.6319 54.3861 56.9046C54.3567 57.1768 54.3282 57.4524 54.3013 57.7313C54.2748 58.0098 54.2497 58.2897 54.2271 58.5706C54.2039 58.8515 54.1842 59.1285 54.1673 59.4007C54.1505 59.6734 54.1379 59.9412 54.1283 60.2038C54.1196 60.4664 54.1148 60.7184 54.1148 60.9597C54.1148 61.111 54.1167 61.2406 54.1206 61.349C54.124 61.4574 54.1302 61.549 54.1389 61.6236C54.1471 61.6988 54.1587 61.759 54.1731 61.8048C54.1876 61.8506 54.2054 61.8857 54.2271 61.9103L54.3022 61.9594L54.4053 61.972C54.479 61.972 54.5581 61.9609 54.6428 61.9387C54.7272 61.9165 54.8134 61.8857 54.9006 61.8462L54.944 61.9652C54.889 62.0095 54.8201 62.0543 54.7368 62.1001C54.6534 62.1459 54.5658 62.1883 54.4742 62.2263C54.3827 62.2644 54.2931 62.2952 54.2049 62.3188C54.1177 62.3424 54.0411 62.3545 53.9775 62.3545C53.8951 62.3545 53.8296 62.3333 53.7814 62.2914C53.7337 62.2495 53.6971 62.181 53.6716 62.0866C53.6465 61.9917 53.6306 61.8689 53.6234 61.7166C53.6167 61.5649 53.6133 61.3794 53.6133 61.1611C53.6133 61.0816 53.6157 60.9684 53.62 60.821C53.6244 60.674 53.6311 60.5025 53.6393 60.3069C53.648 60.1113 53.6576 59.8979 53.6682 59.6657C53.6793 59.4334 53.6904 59.1935 53.7024 58.9454C53.7149 58.6968 53.7275 58.4463 53.7414 58.1938C53.7554 57.9414 53.7689 57.6966 53.7824 57.461C53.7964 57.225 53.8094 57.0024 53.8214 56.7933C53.8339 56.5842 53.845 56.3992 53.8561 56.2388L53.8879 56.1438L53.9645 56.0798L54.07 56.0441L54.188 56.033C54.2801 56.033 54.3759 56.0571 54.4766 56.1063Z" fill="#151515" fill-opacity="0.7"/>
</svg>
