<svg width="110" height="90" viewBox="0 0 110 90" fill="none" xmlns="http://www.w3.org/2000/svg">
<g clip-path="url(#clip0_0_302)">
<path d="M44.9931 50.1202C46.0349 38.4604 42.0684 37.3949 46.9631 21.3907C44.4978 21.1704 42.1385 20.9591 42.1385 20.9591C42.1385 20.9591 39.7756 20.7479 37.3103 20.5288C39.2496 38.4035 35.1992 37.494 34.1591 49.1535C33.1178 60.8131 35.4375 64.6102 35.1008 68.3786C34.7644 72.1449 31.2777 74.4409 32.123 78.6102C33.3045 84.4294 39.582 84.9899 41.7743 79.4717C43.346 75.52 40.1724 72.7325 40.5106 68.9639C40.8452 65.1974 43.9512 61.7808 44.9931 50.1202Z" fill="#151515" fill-opacity="0.7"/>
<path d="M62.1395 18.8282L61.1807 18.7433C61.0927 19.7352 60.5235 20.5627 59.7202 21.0284C59.2129 21.3207 58.6203 21.4641 57.9925 21.4082L26.4551 18.5915C25.4614 18.5027 24.6335 17.9337 24.1681 17.1309C23.876 16.6228 23.7317 16.032 23.7882 15.4032L23.7886 15.4018L24.4182 8.33512C24.5075 7.34238 25.076 6.51468 25.8789 6.04929C26.3865 5.75748 26.9776 5.61362 27.6077 5.66936L59.1456 8.48583C60.139 8.57418 60.966 9.14246 61.4316 9.9458C61.7236 10.4526 61.8674 11.0457 61.8119 11.6763L61.1809 18.7426L62.1395 18.8282L63.0986 18.9136L63.7298 11.8466C63.8213 10.8139 63.5816 9.81914 63.0985 8.98343C62.3365 7.66039 60.9553 6.71391 59.3167 6.5681L27.779 3.75211C26.7459 3.65898 25.7515 3.8991 24.9165 4.3824C23.5935 5.14442 22.6473 6.52608 22.5002 8.1636L21.8707 15.2315L21.8711 15.23C21.777 16.2636 22.0179 17.2583 22.5007 18.0935C23.2635 19.4167 24.6451 20.363 26.284 20.5092L57.8208 23.3258C58.8522 23.4192 59.8466 23.1791 60.6828 22.6957C62.0058 21.9337 62.9528 20.5523 63.0983 18.9131L62.1395 18.8282Z" fill="#CEA561"/>
<path d="M58.3674 16.8809L57.4087 16.7941C57.3983 16.8954 57.3648 16.9898 57.2824 17.1038C57.1999 17.2166 57.0638 17.342 56.8716 17.4523C56.4746 17.6852 55.8436 17.8367 55.1504 17.7719L29.8947 15.5187C29.4054 15.4746 28.9648 15.3347 28.6254 15.1474C28.2846 14.9609 28.0536 14.7282 27.945 14.5369C27.8588 14.3843 27.8384 14.2712 27.8474 14.159L27.8479 14.1556L28.194 10.2834C28.2039 10.1823 28.2368 10.0889 28.3187 9.97516C28.4001 9.86359 28.5363 9.73823 28.7284 9.62788C29.125 9.39524 29.7553 9.24356 30.4508 9.30826L55.7028 11.5636C56.1947 11.6068 56.6353 11.7468 56.9745 11.9336C57.3155 12.1193 57.5457 12.3518 57.6543 12.5431C57.7398 12.6955 57.7615 12.8097 57.7525 12.9263L57.4086 16.796L57.4087 16.7941L58.3674 16.8809L59.3258 16.9661L59.6704 13.0966C59.72 12.5518 59.5779 12.0212 59.3216 11.5805C58.9916 11.0132 58.4914 10.5718 57.9016 10.2461C57.3099 9.92219 56.6202 9.71322 55.8744 9.64558L30.6224 7.39026C29.5655 7.29856 28.5706 7.49958 27.7658 7.96055C27.3783 8.1843 27.0338 8.47299 26.7674 8.83529C26.5008 9.19594 26.3175 9.63703 26.2764 10.1135L25.9302 13.9845L25.9307 13.9812C25.8784 14.5287 26.0219 15.0597 26.2777 15.4995C26.608 16.0673 27.1079 16.5082 27.6972 16.8342C28.2888 17.1588 28.9775 17.3683 29.7227 17.4358L54.9789 19.6899C56.0333 19.7817 57.0285 19.5812 57.8342 19.1197C58.2208 18.8965 58.5658 18.6075 58.8329 18.2454C59.0995 17.8847 59.2836 17.4438 59.3257 16.968L59.3258 16.9661L58.3674 16.8809Z" fill="#CEA561"/>
<path d="M56.8572 13.2563L28.6406 10.7374L30.3894 9.76036L55.4187 11.9954L56.8572 13.2563Z" fill="#CEA561"/>
<path d="M56.6703 15.3739L28.452 12.8542L30.2008 11.8771L55.2308 14.1123L56.6703 15.3739Z" fill="#CEA561"/>
<path d="M56.4757 17.4917L28.2611 14.9709L30.0113 13.9931L55.0395 16.2294L56.4757 17.4917Z" fill="#CEA561"/>
<path d="M44.9941 50.1207L45.9527 50.2064C46.2189 47.2366 46.165 44.9185 46.0127 42.8916C45.8988 41.3709 45.7317 40.0181 45.6053 38.672C45.4153 36.652 45.3112 34.6477 45.5856 32.0183C45.8613 29.3899 46.5205 26.1324 47.8846 21.673L48.2317 20.5376L47.0495 20.4322C45.8168 20.3226 44.6108 20.2143 43.7131 20.1341C42.8151 20.0534 42.2267 20.0006 42.2251 20.0009C42.2244 20.0007 39.8622 19.7898 37.3962 19.5705L36.2267 19.4669L36.354 20.6335C36.8352 25.0671 36.942 28.3131 36.8217 30.8579C36.6375 34.6771 35.9653 36.9138 35.2047 39.4044C34.4434 41.8905 33.5959 44.614 33.2014 49.0684C32.6729 54.9676 32.997 58.9309 33.4134 61.8609C33.6206 63.3246 33.8483 64.5255 33.9972 65.5622C34.1471 66.6007 34.2169 67.4653 34.1427 68.2937C34.071 69.0954 33.8312 69.836 33.4962 70.5886C32.9973 71.7169 32.2713 72.8472 31.7176 74.1628C31.4425 74.8211 31.2144 75.5298 31.1034 76.3038C30.991 77.0767 30.9994 77.9127 31.1805 78.8017C31.3707 79.7394 31.6842 80.5734 32.099 81.2917C32.916 82.7122 34.1395 83.6753 35.5041 84.0679C36.8666 84.4641 38.356 84.2821 39.649 83.5331C40.9152 82.8027 41.988 81.5454 42.6697 79.8281C43.1204 78.7005 43.2359 77.6146 43.1523 76.6152C43.0261 75.1127 42.4997 73.8142 42.0882 72.5933C41.6697 71.3678 41.3618 70.2409 41.4698 69.0503C41.5426 68.2283 41.7718 67.3861 42.1164 66.3837C42.6318 64.8812 43.4 63.0388 44.1315 60.4788C44.8637 57.9167 45.5572 54.6355 45.9527 50.2064L44.9941 50.1207L44.0355 50.0351C43.5194 55.7918 42.5062 59.4611 41.5763 62.1922C41.1101 63.5593 40.6616 64.6949 40.2955 65.7582C39.9315 66.8197 39.647 67.8175 39.5525 68.879C39.4543 69.9661 39.6135 70.9685 39.8566 71.8862C40.2248 73.2643 40.7635 74.4776 41.042 75.6333C41.1828 76.2108 41.2639 76.7699 41.2506 77.3361C41.2369 77.9026 41.1329 78.4799 40.8804 79.1166C40.3307 80.4957 39.5306 81.3772 38.6864 81.8658C37.8191 82.3635 36.8993 82.4645 36.0387 82.2183C35.1802 81.9684 34.3661 81.3638 33.7658 80.3293C33.4638 79.8062 33.22 79.1719 33.0671 78.4192C32.8872 77.5204 32.9365 76.7599 33.1192 76.0141C33.3922 74.8993 34.0064 73.8195 34.6406 72.6198C35.2676 71.4236 35.9131 70.0901 36.0605 68.4647C36.1546 67.4089 36.0603 66.3857 35.9027 65.2882C35.6641 63.6389 35.2797 61.8001 35.0475 59.2787C34.8154 56.7596 34.7333 53.5584 35.1187 49.2397C35.3745 46.3798 35.8091 44.3198 36.2929 42.5272C36.6564 41.1824 37.0515 39.983 37.4237 38.7131C37.9825 36.8096 38.4802 34.7501 38.6863 31.9214C38.8937 29.0907 38.8177 25.4911 38.2676 20.4256L37.3113 20.5293L37.2259 21.4884C38.4585 21.598 39.6652 21.7052 40.5641 21.7854C41.463 21.8656 42.0518 21.9181 42.0538 21.9182C42.053 21.918 44.4126 22.1299 46.8784 22.3499L46.9641 21.3912L46.0435 21.1095C44.8086 25.148 44.1247 28.2679 43.7831 30.8672C43.2688 34.7646 43.5397 37.4883 43.8269 40.2265C44.1133 42.9695 44.4171 45.7438 44.0355 50.0351L44.9941 50.1207Z" fill="#CEA561"/>
<path d="M42.2951 49.7533L41.3364 49.6676C41.1497 51.766 40.7523 53.6699 40.2622 55.0958C40.018 55.8076 39.7495 56.3994 39.4924 56.8234C39.2397 57.2498 38.9845 57.4919 38.8814 57.5434L38.838 57.5641L38.8603 57.654L38.8687 57.563L38.838 57.5641L38.8603 57.654L38.8687 57.563L38.8611 57.6542L38.8987 57.5691L38.8692 57.5627L38.8611 57.6542L38.8987 57.5691L38.8786 57.5567C38.837 57.5284 38.7307 57.4219 38.6176 57.2239C38.4664 56.9642 38.3046 56.5582 38.1708 56.0473C37.7596 54.5082 37.5941 52.0534 37.838 49.3542C38.025 47.2563 38.4229 45.3521 38.913 43.9262C39.1572 43.2144 39.425 42.6224 39.6824 42.1989C39.9351 41.7725 40.19 41.5311 40.2929 41.4791L40.3361 41.4591L40.3139 41.3717L40.3066 41.4602L40.3361 41.4591L40.3139 41.3717L40.3066 41.4602L40.3148 41.3668L40.2768 41.4534L40.3066 41.4602L40.3148 41.3668L40.2768 41.4534L40.2961 41.4656C40.3377 41.4939 40.4441 41.6004 40.5572 41.7996C40.7081 42.0588 40.8704 42.4646 41.0042 42.9754C41.4147 44.5143 41.5799 46.9687 41.3364 49.6676L42.2951 49.7533L43.2534 49.8385C43.4247 47.92 43.4105 46.1203 43.2406 44.5827C43.1551 43.8134 43.0307 43.1101 42.8652 42.4835C42.6992 41.8572 42.4953 41.308 42.2246 40.8369C42.0403 40.5189 41.8246 40.2325 41.5402 39.9956C41.2592 39.7605 40.8883 39.5772 40.4776 39.5425C40.0583 39.5034 39.6521 39.6235 39.3303 39.8118C38.7819 40.1364 38.3937 40.6189 38.0349 41.2025C37.5058 42.0813 37.0656 43.2292 36.7037 44.5873C36.344 45.944 36.0708 47.5067 35.9203 49.1831C35.7498 51.1018 35.7638 52.9022 35.9339 54.4403C36.0192 55.2091 36.1438 55.9129 36.3094 56.5395C36.4756 57.1663 36.6792 57.715 36.9502 58.1865C37.1347 58.5039 37.3507 58.7907 37.6356 59.0273C37.9161 59.2627 38.2872 59.4452 38.6974 59.4803C39.1172 59.5191 39.5212 59.3996 39.844 59.2107C40.3923 58.8862 40.7806 58.4037 41.1394 57.8201C41.6697 56.9412 42.1096 55.7928 42.4715 54.4347C42.8312 53.078 43.1042 51.5148 43.2534 49.8385L42.2951 49.7533Z" fill="#CEA561"/>
<path d="M43.1005 21.0451L41.207 31.4183L41.1825 20.8736L43.1005 21.0451Z" fill="#CEA561"/>
<path d="M78.4209 83.4967C78.5629 83.5461 78.9106 83.4707 79.0684 83.0192L95.7666 35.2184C95.9058 34.8203 95.7516 34.5622 95.6143 34.4703L95.5576 34.441L93.3975 33.6871L92.0615 34.4117L91.165 34.899L91.1025 33.8805L90.9336 31.1276C90.9113 30.8016 90.7444 30.6307 90.6016 30.5807L78.1924 26.2467C78.0492 26.1968 77.8151 26.2265 77.6016 26.4645L77.5996 26.4664L75.7451 28.5162L75.0615 29.2701L74.6641 28.3336L74.0703 26.9352L71.9111 26.1803C71.7672 26.13 71.4219 26.2027 71.2627 26.6578L54.5645 74.4586C54.4067 74.9099 54.631 75.1861 54.7734 75.236L56.9336 75.9908L58.2686 75.2653L59.1631 74.7799L59.2275 75.7955L59.4023 78.5543V78.5573C59.4212 78.8768 59.5871 79.0463 59.7305 79.0963L72.1377 83.4303C72.2811 83.4803 72.5181 83.4518 72.7393 83.2106V83.2115L74.585 81.1627L75.2686 80.4049L75.667 81.3434L76.2588 82.7428L78.4199 83.4967H78.4209ZM70.7422 75.5475C69.9778 75.5799 69.039 75.4217 68.0908 75.0905C67.1424 74.7592 66.3094 74.2979 65.7314 73.7965C65.4443 73.5473 65.194 73.2652 65.0342 72.9586C64.8737 72.6504 64.778 72.2589 64.918 71.858C65.1065 71.3181 65.6076 71.063 66.0391 70.9498C66.3495 70.8685 66.7031 70.8372 67.0771 70.8453L67.3242 70.1422C66.5528 69.3756 66.0701 68.3541 66.3125 67.3356L66.3809 67.1031C66.7627 66.0105 67.8465 65.4433 69.0088 65.318L69.2295 64.6862C68.9314 64.4596 68.6738 64.2148 68.4814 63.9576C68.2142 63.6003 67.981 63.0884 68.1699 62.5485C68.3586 62.0088 68.8596 61.7544 69.291 61.6412C69.6015 61.5598 69.9551 61.5286 70.3291 61.5367L71.8721 57.1237C71.3613 56.1265 71.2728 54.8727 71.6895 53.6803L71.7002 53.6471L71.707 53.6334L71.7109 53.6158L71.7236 53.5807C72.1405 52.3876 72.9916 51.4635 74.0117 50.9977L75.5527 46.5875C75.2544 46.3608 74.9972 46.1154 74.8047 45.858C74.5374 45.5007 74.3046 44.9896 74.4932 44.4498C74.6817 43.9102 75.1818 43.6548 75.6133 43.5416C75.9241 43.4601 76.2787 43.4299 76.6533 43.4381L76.874 42.8063C76.0447 41.9833 75.5462 40.8671 75.9287 39.7721C76.3127 38.6732 77.3968 38.1104 78.5586 37.983L78.8047 37.2789C78.5064 37.0522 78.2491 36.8068 78.0566 36.5494C77.7894 36.1921 77.5566 35.6809 77.7451 35.1412C77.8851 34.7405 78.2019 34.4919 78.5205 34.3492C78.8371 34.2075 79.2094 34.1422 79.5898 34.1256C80.2594 34.0964 81.0621 34.2137 81.8877 34.4655L82.2422 34.5817C83.1901 34.9133 84.0236 35.3743 84.6016 35.8766C84.8889 36.1264 85.1393 36.4095 85.2988 36.7174C85.4594 37.0274 85.5531 37.4191 85.4131 37.8199L85.374 37.9176C85.1619 38.3909 84.6966 38.6221 84.292 38.7281C83.981 38.8096 83.6266 38.8409 83.252 38.8326L83.0059 39.5367C83.8355 40.3601 84.3338 41.4751 83.9492 42.5739H83.9502C83.5684 43.669 82.4829 44.2318 81.3213 44.359L81.1006 44.9928C81.3985 45.2194 81.6573 45.4632 81.8496 45.7203C82.1 46.0552 82.3203 46.5257 82.1914 47.028L82.1611 47.1285C81.9729 47.6687 81.4713 47.9237 81.04 48.0367C80.7291 48.1183 80.3747 48.1495 80 48.1412L78.46 52.5514C78.9681 53.5509 79.0587 54.8042 78.6416 55.9977L78.6299 56.0309L78.623 56.0465L78.6191 56.0631L78.6074 56.0973L78.5156 56.3385C78.0735 57.4139 77.2703 58.2462 76.3203 58.6764L74.7773 63.0914C75.0755 63.318 75.3339 63.5618 75.5264 63.819C75.7937 64.1762 76.0265 64.6883 75.8379 65.2281C75.6492 65.7675 75.1491 66.0222 74.7178 66.1354C74.4069 66.2169 74.0523 66.2491 73.6777 66.2408L73.457 66.8717C74.289 67.6932 74.784 68.8121 74.4023 69.9049C74.0202 70.9987 72.935 71.5671 71.7715 71.6959L71.5254 72.4C71.8235 72.6266 72.0819 72.8704 72.2744 73.1276C72.5417 73.4848 72.7745 73.9969 72.5859 74.5367C72.4459 74.9375 72.1282 75.1845 71.8105 75.3258C71.4944 75.4665 71.1223 75.5314 70.7422 75.5475Z" fill="#1B1B1B" stroke="#CEA561" stroke-width="1.3"/>
</g>
<defs>
<clipPath id="clip0_0_302">
<rect width="110" height="90" fill="white"/>
</clipPath>
</defs>
</svg>
