<svg width="9" height="5" viewBox="0 0 9 5" fill="none" xmlns="http://www.w3.org/2000/svg">
<path d="M4.62908 4.80913L8.61158 0.629384C8.67806 0.559642 8.71515 0.466986 8.71515 0.370634C8.71515 0.274281 8.67806 0.181625 8.61158 0.111884L8.60708 0.107384C8.57485 0.0734572 8.53605 0.0464425 8.49305 0.0279822C8.45005 0.00952194 8.40375 2.35696e-06 8.35695 2.35287e-06C8.31016 2.34878e-06 8.26385 0.00952192 8.22085 0.0279822C8.17785 0.0464425 8.13906 0.0734572 8.10683 0.107384L4.35683 4.04338L0.60833 0.107383C0.5761 0.0734565 0.537305 0.0464418 0.494305 0.0279815C0.451306 0.00952124 0.405 1.65769e-06 0.358205 1.6536e-06C0.31141 1.64951e-06 0.265105 0.00952122 0.222105 0.0279815C0.179105 0.0464418 0.14031 0.0734565 0.10808 0.107383L0.10358 0.111883C0.0370964 0.181625 8.03601e-06 0.27428 8.02759e-06 0.370633C8.01917e-06 0.466985 0.0370964 0.559642 0.10358 0.629383L4.08608 4.80913C4.1211 4.84589 4.16322 4.87515 4.20989 4.89515C4.25656 4.91515 4.30681 4.92546 4.35758 4.92546C4.40835 4.92546 4.45859 4.91515 4.50526 4.89515C4.55193 4.87515 4.59406 4.84589 4.62908 4.80913Z" fill="#ECECEC"/>
</svg>
